<?xml version="1.0" encoding="UTF-8"?>
<svg width="20px" height="12px" viewBox="0 0 20 12" version="1.1" xmlns="http://www.w3.org/2000/svg" xmlns:xlink="http://www.w3.org/1999/xlink">
    <title>F68FEBBB-E939-4756-B6A2-CECAECF6A495</title>
    <g id="-" stroke="none" stroke-width="1" fill="none" fill-rule="evenodd">
        <g id="UI-kit-WIP" transform="translate(-286.000000, -359.000000)" fill="#C8CCD2" fill-rule="nonzero">
            <g id="input" transform="translate(60.000000, 340.000000)">
                <path d="M236,19 C232.178787,19 228.713511,21.104324 226.15649,24.5223061 C225.947837,24.8023336 225.947837,25.1935484 226.15649,25.4735758 C228.713511,28.895676 232.178787,31 236,31 C239.821213,31 243.286489,28.895676 245.84351,25.4776939 C246.052163,25.1976664 246.052163,24.8064516 245.84351,24.5264242 C243.286489,21.104324 239.821213,19 236,19 Z M236.274113,29.2251201 C233.737547,29.3857241 231.642835,27.2814001 231.802393,24.7240906 C231.933313,22.6156486 233.631175,20.9066575 235.725887,20.7748799 C238.262453,20.6142759 240.357165,22.7185999 240.197607,25.2759094 C240.062596,27.3802334 238.364734,29.0892244 236.274113,29.2251201 Z M236.147284,27.273164 C234.780812,27.3596431 233.651631,26.2271791 233.741639,24.8517502 C233.81119,23.7151682 234.727626,22.7968428 235.856807,22.7227179 C237.223279,22.6362388 238.35246,23.7687028 238.262453,25.1441318 C238.18881,26.2848318 237.272374,27.2031572 236.147284,27.273164 Z" id="icon-seePassword"></path>
            </g>
        </g>
    </g>
</svg>